REM DIRINDEX 1\2\6,1\2\7,1\2\8,1\2\9,1\3\10,1\3\11,1\4\12,1\4\13,1\4\14,1\5\15,1\5\16,1\5\17
REM DIRNAME cjc020,folder01,folder02,folder03,folder04,folder05,folder06,folder07,folder08,folder09,folder10,folder11,folder12,folder13,folder14,folder15,folder16
TITLE ""
FILE "1900_3_110 sec19_1876_1900.mp3" MP3
  TRACK 01 AUDIO
    TITLE "0:"
    INDEX 01 00:00:00
  TRACK 02 AUDIO
    TITLE "17:cjc020_9738"
    INDEX 01 00:00:15
  TRACK 03 AUDIO
    TITLE "0:"
    INDEX 01 00:01:48
  TRACK 04 AUDIO
    TITLE "16:cjc020_9739"
    INDEX 01 00:01:52
  TRACK 05 AUDIO
    TITLE "0:"
    INDEX 01 00:03:00
  TRACK 06 AUDIO
    TITLE "17:cjc020_9740"
    INDEX 01 00:03:59
  TRACK 07 AUDIO
    TITLE "0:"
    INDEX 01 00:04:74
  TRACK 08 AUDIO
    TITLE "16:cjc020_9741"
    INDEX 01 00:05:05
  TRACK 09 AUDIO
    TITLE "0:"
    INDEX 01 00:06:16
  TRACK 10 AUDIO
    TITLE "17:cjc020_9742"
    INDEX 01 00:06:69
  TRACK 11 AUDIO
    TITLE "0:"
    INDEX 01 00:08:15
  TRACK 12 AUDIO
    TITLE "16:cjc020_9743"
    INDEX 01 00:08:24
  TRACK 13 AUDIO
    TITLE "0:"
    INDEX 01 00:09:57
  TRACK 14 AUDIO
    TITLE "17:cjc020_9744"
    INDEX 01 00:10:39
  TRACK 15 AUDIO
    TITLE "0:"
    INDEX 01 00:11:60
  TRACK 16 AUDIO
    TITLE "16:cjc020_9745"
    INDEX 01 00:11:62
  TRACK 17 AUDIO
    TITLE "0:"
    INDEX 01 00:13:08
  TRACK 18 AUDIO
    TITLE "17:cjc020_9746"
    INDEX 01 00:13:67
  TRACK 19 AUDIO
    TITLE "0:"
    INDEX 01 00:15:17
  TRACK 20 AUDIO
    TITLE "16:cjc020_9747"
    INDEX 01 00:15:25
  TRACK 21 AUDIO
    TITLE "0:"
    INDEX 01 00:16:38
  TRACK 22 AUDIO
    TITLE "17:cjc020_9748"
    INDEX 01 00:17:23
  TRACK 23 AUDIO
    TITLE "0:"
    INDEX 01 00:18:68
  TRACK 24 AUDIO
    TITLE "16:cjc020_9749"
    INDEX 01 00:18:70
  TRACK 25 AUDIO
    TITLE "0:"
    INDEX 01 00:20:02
  TRACK 26 AUDIO
    TITLE "17:cjc020_9750"
    INDEX 01 00:20:63
  TRACK 27 AUDIO
    TITLE "0:"
    INDEX 01 00:22:21
  TRACK 28 AUDIO
    TITLE "16:cjc020_9751"
    INDEX 01 00:22:23
  TRACK 29 AUDIO
    TITLE "0:"
    INDEX 01 00:23:18
  TRACK 30 AUDIO
    TITLE "17:cjc020_9752"
    INDEX 01 00:24:06
  TRACK 31 AUDIO
    TITLE "0:"
    INDEX 01 00:25:48
  TRACK 32 AUDIO
    TITLE "16:cjc020_9753"
    INDEX 01 00:25:54
  TRACK 33 AUDIO
    TITLE "0:"
    INDEX 01 00:26:60
  TRACK 34 AUDIO
    TITLE "17:cjc020_9754"
    INDEX 01 00:27:49
  TRACK 35 AUDIO
    TITLE "0:"
    INDEX 01 00:28:74
  TRACK 36 AUDIO
    TITLE "16:cjc020_9755"
    INDEX 01 00:29:03
  TRACK 37 AUDIO
    TITLE "0:"
    INDEX 01 00:30:18
  TRACK 38 AUDIO
    TITLE "17:cjc020_9756"
    INDEX 01 00:31:02
  TRACK 39 AUDIO
    TITLE "0:"
    INDEX 01 00:33:03
  TRACK 40 AUDIO
    TITLE "16:cjc020_9757"
    INDEX 01 00:33:09
  TRACK 41 AUDIO
    TITLE "0:"
    INDEX 01 00:34:24
  TRACK 42 AUDIO
    TITLE "17:cjc020_9758"
    INDEX 01 00:35:10
  TRACK 43 AUDIO
    TITLE "0:"
    INDEX 01 00:36:27
  TRACK 44 AUDIO
    TITLE "16:cjc020_9759"
    INDEX 01 00:36:35
  TRACK 45 AUDIO
    TITLE "0:"
    INDEX 01 00:37:44
  TRACK 46 AUDIO
    TITLE "17:cjc020_9760"
    INDEX 01 00:38:30
  TRACK 47 AUDIO
    TITLE "0:"
    INDEX 01 00:39:21
  TRACK 48 AUDIO
    TITLE "16:cjc020_9761"
    INDEX 01 00:39:27
  TRACK 49 AUDIO
    TITLE "0:"
    INDEX 01 00:40:44
  TRACK 50 AUDIO
    TITLE "17:cjc020_9762"
    INDEX 01 00:41:26
  TRACK 51 AUDIO
    TITLE "0:"
    INDEX 01 00:44:36
  TRACK 52 AUDIO
    TITLE "16:cjc020_9763"
    INDEX 01 00:44:44
  TRACK 53 AUDIO
    TITLE "0:"
    INDEX 01 00:45:43
  TRACK 54 AUDIO
    TITLE "17:cjc020_9764"
    INDEX 01 00:46:25
  TRACK 55 AUDIO
    TITLE "0:"
    INDEX 01 00:47:36
  TRACK 56 AUDIO
    TITLE "16:cjc020_9765"
    INDEX 01 00:47:48
  TRACK 57 AUDIO
    TITLE "0:"
    INDEX 01 00:48:51
  TRACK 58 AUDIO
    TITLE "17:cjc020_9766"
    INDEX 01 00:49:37
  TRACK 59 AUDIO
    TITLE "0:"
    INDEX 01 00:50:66
  TRACK 60 AUDIO
    TITLE "16:cjc020_9767"
    INDEX 01 00:50:72
  TRACK 61 AUDIO
    TITLE "0:"
    INDEX 01 00:51:69
  TRACK 62 AUDIO
    TITLE "17:cjc020_9768"
    INDEX 01 00:52:51
  TRACK 63 AUDIO
    TITLE "0:"
    INDEX 01 00:54:19
  TRACK 64 AUDIO
    TITLE "16:cjc020_9769"
    INDEX 01 00:54:21
  TRACK 65 AUDIO
    TITLE "0:"
    INDEX 01 00:55:32
  TRACK 66 AUDIO
    TITLE "17:cjc020_9770"
    INDEX 01 00:56:18
  TRACK 67 AUDIO
    TITLE "0:"
    INDEX 01 00:57:35
  TRACK 68 AUDIO
    TITLE "16:cjc020_9771"
    INDEX 01 00:57:39
  TRACK 69 AUDIO
    TITLE "0:"
    INDEX 01 00:58:60
  TRACK 70 AUDIO
    TITLE "17:cjc020_9772"
    INDEX 01 00:59:45
  TRACK 71 AUDIO
    TITLE "0:"
    INDEX 01 01:00:72
  TRACK 72 AUDIO
    TITLE "16:cjc020_9773"
    INDEX 01 01:01:03
  TRACK 73 AUDIO
    TITLE "0:"
    INDEX 01 01:02:06
  TRACK 74 AUDIO
    TITLE "17:cjc020_9774"
    INDEX 01 01:02:67
  TRACK 75 AUDIO
    TITLE "0:"
    INDEX 01 01:04:33
  TRACK 76 AUDIO
    TITLE "16:cjc020_9775"
    INDEX 01 01:04:37
  TRACK 77 AUDIO
    TITLE "0:"
    INDEX 01 01:05:48
  TRACK 78 AUDIO
    TITLE "17:cjc020_9776"
    INDEX 01 01:06:34
  TRACK 79 AUDIO
    TITLE "0:"
    INDEX 01 01:07:51
  TRACK 80 AUDIO
    TITLE "16:cjc020_9777"
    INDEX 01 01:07:59
  TRACK 81 AUDIO
    TITLE "0:"
    INDEX 01 01:08:72
  TRACK 82 AUDIO
    TITLE "17:cjc020_9778"
    INDEX 01 01:09:56
  TRACK 83 AUDIO
    TITLE "0:"
    INDEX 01 01:11:27
  TRACK 84 AUDIO
    TITLE "16:cjc020_9779"
    INDEX 01 01:11:29
  TRACK 85 AUDIO
    TITLE "0:"
    INDEX 01 01:12:38
  TRACK 86 AUDIO
    TITLE "17:cjc020_9780"
    INDEX 01 01:13:26
  TRACK 87 AUDIO
    TITLE "0:"
    INDEX 01 01:15:01
  TRACK 88 AUDIO
    TITLE "16:cjc020_9781"
    INDEX 01 01:15:05
  TRACK 89 AUDIO
    TITLE "0:"
    INDEX 01 01:16:24
  TRACK 90 AUDIO
    TITLE "17:cjc020_9782"
    INDEX 01 01:17:10
  TRACK 91 AUDIO
    TITLE "0:"
    INDEX 01 01:18:07
  TRACK 92 AUDIO
    TITLE "16:cjc020_9783"
    INDEX 01 01:18:11
  TRACK 93 AUDIO
    TITLE "0:"
    INDEX 01 01:19:21
  TRACK 94 AUDIO
    TITLE "17:cjc020_9784"
    INDEX 01 01:20:02
  TRACK 95 AUDIO
    TITLE "0:"
    INDEX 01 01:21:14
  TRACK 96 AUDIO
    TITLE "16:cjc020_9785"
    INDEX 01 01:21:21
  TRACK 97 AUDIO
    TITLE "0:"
    INDEX 01 01:22:23
  TRACK 98 AUDIO
    TITLE "17:cjc020_9786"
    INDEX 01 01:23:07
  TRACK 99 AUDIO
    TITLE "0:"
    INDEX 01 01:24:26
  TRACK 100 AUDIO
    TITLE "16:cjc020_9787"
    INDEX 01 01:24:36
  TRACK 101 AUDIO
    TITLE "0:"
    INDEX 01 01:25:39
